<svg width="28" height="21" viewBox="0 0 28 21" fill="none" xmlns="http://www.w3.org/2000/svg">
<path d="M25.5392 0H2.46106C2.08224 0 1.72759 0.091699 1.40674 0.242843L13.9454 12.5885L16.7558 9.92921C16.7558 9.92921 16.756 9.92894 16.756 9.92884C16.7561 9.92873 16.7563 9.92862 16.7563 9.92862L26.5939 0.243058C26.273 0.0918065 25.9181 0 25.5392 0Z" fill="#EDB900"/>
<path d="M27.7538 1.38525L18.4961 10.4999L27.7534 19.6147C27.9069 19.2988 28.0001 18.9496 28.0001 18.5766V2.42296C28.0001 2.05019 27.9072 1.70106 27.7538 1.38525Z" fill="#EDB900"/>
<path d="M0.246641 1.38525C0.0931328 1.70117 0 2.05035 0 2.42334V18.577C0 18.9498 0.0930234 19.299 0.246422 19.6148L9.50408 10.5002L0.246641 1.38525Z" fill="#EDB900"/>
<path d="M17.3361 11.6424L14.5253 14.302C14.3651 14.4598 14.1552 14.5387 13.9454 14.5387C13.7355 14.5387 13.5256 14.4598 13.3654 14.302L10.6641 11.6423L1.40625 20.757C1.72716 20.9083 2.08202 21.0001 2.46095 21.0001H25.5391C25.9179 21.0001 26.2725 20.9084 26.5934 20.7572L17.3361 11.6424Z" fill="#EDB900"/>
</svg>
