<svg width="20" height="27" viewBox="0 0 20 27" fill="none" xmlns="http://www.w3.org/2000/svg">
<path d="M9.99958 0C4.48608 0 0 4.45929 0 9.94042C0 11.3701 0.294383 12.7351 0.874532 13.9979C3.37471 19.4362 8.16824 25.1779 9.57816 26.808C9.6838 26.9298 9.8378 27 9.99986 27C10.1619 27 10.3159 26.9298 10.4216 26.808C11.8309 25.1782 16.6245 19.4368 19.1255 13.9979C19.7059 12.7351 20 11.3701 20 9.94042C19.9994 4.45929 15.5134 0 9.99958 0ZM9.99958 15.1035C7.13553 15.1035 4.8052 12.7871 4.8052 9.94014C4.8052 7.09292 7.13553 4.77651 9.99958 4.77651C12.8636 4.77651 15.194 7.09292 15.194 9.94014C15.1942 12.7871 12.8639 15.1035 9.99958 15.1035Z" fill="#EDB900"/>
</svg>
