<svg width="28" height="28" viewBox="0 0 28 28" fill="none" xmlns="http://www.w3.org/2000/svg">
<path d="M11.5954 16.3939C8.92299 13.7186 8.31957 11.0432 8.18344 9.97136C8.1454 9.67499 8.24728 9.37777 8.45908 9.16722L10.6217 7.00319C10.9398 6.68491 10.9963 6.18889 10.7578 5.80712L7.31453 0.454552C7.05072 0.0318208 6.50906 -0.120747 6.06377 0.102256L0.536022 2.70847C0.175933 2.88597 -0.0358661 3.26898 0.00501798 3.6687C0.294656 6.42328 1.49424 13.1947 8.14144 19.8497C14.7886 26.5046 21.5517 27.705 24.3047 27.995C24.704 28.0359 25.0866 27.8239 25.2639 27.4634L27.8673 21.9296C28.0892 21.4848 27.9378 20.944 27.5173 20.6794L22.1706 17.2333C21.7894 16.9943 21.294 17.0504 20.9758 17.3686L18.8141 19.5336C18.6038 19.7456 18.3069 19.8476 18.0109 19.8095C16.9402 19.6733 14.2678 19.0692 11.5954 16.3939Z" fill="#EDB900"/>
<path d="M22.2073 14.9812C21.6741 14.9812 21.2418 14.5485 21.2418 14.0147C21.2373 10.0131 17.9981 6.77033 14.0009 6.7658C13.4677 6.7658 13.0354 6.33307 13.0354 5.79928C13.0354 5.26549 13.4677 4.83276 14.0009 4.83276C19.064 4.83836 23.1672 8.94596 23.1727 14.0147C23.1727 14.5485 22.7405 14.9812 22.2073 14.9812Z" fill="#EDB900"/>
<path d="M27.0346 14.981C26.5014 14.981 26.0691 14.5483 26.0691 14.0145C26.0617 7.34518 20.6629 1.94049 14.0009 1.93303C13.4677 1.93303 13.0354 1.50031 13.0354 0.966517C13.0354 0.432724 13.4677 0 14.0009 0C21.7289 0.00852269 27.9915 6.27804 28.0001 14.0145C28.0001 14.2708 27.8983 14.5167 27.7173 14.6979C27.5362 14.8792 27.2906 14.981 27.0346 14.981Z" fill="#EDB900"/>
</svg>
